<svg width="56" height="56" viewBox="0 0 56 56" fill="none" xmlns="http://www.w3.org/2000/svg">
<g clip-path="url(#clip0_1_41)">
<path d="M28 0L30.4311 14.2127L37.5766 1.68861L35 15.8756L45.9981 6.55076L38.7246 19.001L52.2487 14L41.1557 23.2117L55.5746 23.1379L42 28L55.5746 32.8621L41.1557 32.7883L52.2487 42L38.7246 36.999L45.9981 49.4492L35 40.1244L37.5766 54.3114L30.4311 41.7873L28 56L25.5689 41.7873L18.4234 54.3114L21 40.1244L10.0019 49.4492L17.2754 36.999L3.75129 42L14.8443 32.7883L0.425383 32.8621L14 28L0.425383 23.1379L14.8443 23.2117L3.75129 14L17.2754 19.001L10.0019 6.55076L21 15.8756L18.4234 1.68861L25.5689 14.2127L28 0Z" fill="#ECE8D9"/>
<path d="M34.9282 31.9999C34.2261 33.2161 33.2162 34.226 32 34.9281C30.7838 35.6303 29.4043 35.9999 28 35.9999C26.5957 35.9999 25.2162 35.6303 24 34.9281C22.7838 34.226 21.7739 33.2161 21.0718 31.9999L23.8431 30.3999C24.2644 31.1296 24.8703 31.7355 25.6 32.1568C26.3297 32.5781 27.1574 32.7999 28 32.7999C28.8426 32.7999 29.6703 32.5781 30.4 32.1568C31.1297 31.7355 31.7356 31.1296 32.1569 30.3999L34.9282 31.9999Z" fill="#102226"/>
</g>
<defs>
<clipPath id="clip0_1_41">
<rect width="56" height="56" fill="white"/>
</clipPath>
</defs>
</svg>
