<svg width="180" height="80" viewBox="0 0 180 80" fill="none" xmlns="http://www.w3.org/2000/svg">
<g clip-path="url(#clip0_1_57)">
<path d="M180 0H0V80H180V0Z" fill="white"/>
<path fill-rule="evenodd" clip-rule="evenodd" d="M61.0034 32.0126L41.129 39.9324C41.0891 39.949 41.0558 39.9784 41.0343 40.0159C41.0117 40.0498 40.9998 40.0897 41 40.1304C40.9996 40.1712 41.0116 40.2112 41.0343 40.245C41.0572 40.2794 41.0903 40.3058 41.129 40.3202L47.0298 42.4524C47.0614 42.4651 47.0958 42.469 47.1294 42.4638C47.1624 42.4586 47.1937 42.4457 47.2209 42.4262L58.4148 34.2544C58.4176 34.2532 58.4207 34.2525 58.4238 34.2525C58.4269 34.2525 58.4299 34.2532 58.4328 34.2544C58.439 34.256 58.4447 34.2594 58.4491 34.2642C58.4502 34.2668 58.4507 34.2696 58.4507 34.2724C58.4507 34.2752 58.4502 34.278 58.4491 34.2806C58.4514 34.2863 58.4514 34.2928 58.4491 34.2986L48.5405 42.9335C48.5176 42.9534 48.4993 42.9779 48.4866 43.0055C48.4747 43.0333 48.4691 43.0635 48.4703 43.0938V47.6919C48.4691 47.7335 48.4817 47.7744 48.5062 47.8081C48.5307 47.8423 48.5648 47.8685 48.6042 47.8833C48.6436 47.8974 48.6864 47.8986 48.7266 47.8868C48.7668 47.8751 48.8022 47.851 48.8279 47.8179L51.6877 44.2867C51.7143 44.2544 51.7502 44.231 51.7905 44.2196C51.8309 44.2065 51.8743 44.2065 51.9147 44.2196L55.56 45.5434C55.6081 45.563 55.6621 45.563 55.7102 45.5434C55.7575 45.5216 55.7953 45.4832 55.8164 45.4354L61.268 32.2777C61.2826 32.2414 61.286 32.2015 61.2778 32.1632C61.2709 32.124 61.2521 32.088 61.2239 32.0601C61.1966 32.0312 61.1613 32.0113 61.1226 32.0028C61.0838 31.9944 61.0435 31.9978 61.0067 32.0126" fill="#485B60"/>
<path d="M67.2847 33.6084H65.4882L65.5143 44.5718H67.3108L67.2847 33.6084Z" fill="#485B60"/>
<path d="M72.9404 36.6831C72.0324 36.6831 71.2011 37.0103 70.6801 37.6649V36.8467H68.9865L69.006 44.5702H70.6997L70.6866 39.4566C70.8446 39.0876 71.1087 38.7741 71.4452 38.5561C71.7818 38.3381 72.1755 38.2255 72.5762 38.2327C73.6541 38.2327 74.2715 39.0001 74.2747 40.2208L74.2845 44.5702H75.9782L75.9667 39.9508C75.9667 37.9545 74.7876 36.6896 72.9404 36.6945" fill="#485B60"/>
<path d="M82.9748 36.8141L80.6296 42.227L78.2761 36.8271H76.3979L79.8963 44.5424H81.3906L84.8645 36.8091L82.9748 36.8141Z" fill="#485B60"/>
<path d="M89.0683 36.6454C88.0813 36.6618 87.1356 37.045 86.4148 37.7208C85.694 38.3965 85.2496 39.3164 85.1678 40.302C85.0859 41.2876 85.3726 42.2685 85.972 43.0543C86.5715 43.84 87.4409 44.3745 88.4116 44.5541C89.3824 44.7336 90.385 44.5453 91.225 44.0258C92.0649 43.5063 92.6822 42.6926 92.957 41.7427C93.2317 40.7927 93.1444 39.7744 92.7119 38.8854C92.2794 37.9964 91.5326 37.3001 90.6165 36.9318C90.1248 36.7334 89.5983 36.636 89.0683 36.6454ZM89.083 43.1024C87.7144 43.1024 86.7557 42.042 86.754 40.6675C86.7524 39.293 87.698 38.2245 89.0715 38.213C90.4451 38.2016 91.3842 39.275 91.3874 40.6495C91.3907 42.024 90.4385 43.0909 89.0879 43.0942L89.083 43.1024Z" fill="#485B60"/>
<path d="M96.0094 36.7764H94.3157L94.3369 44.4999H96.029L96.0094 36.7764Z" fill="#485B60"/>
<path d="M96.0094 33.7983H94.3157V35.3659H96.0094V33.7983Z" fill="#485B60"/>
<path d="M101.409 38.1902C101.854 38.1871 102.29 38.3133 102.665 38.5535C103.039 38.7936 103.337 39.1375 103.52 39.5435L104.99 38.7384C104.646 38.0858 104.128 37.5416 103.494 37.1661C102.86 36.7906 102.134 36.5985 101.397 36.6112C99.0944 36.6144 97.3469 38.3538 97.3469 40.6431C97.3469 42.9323 99.1189 44.6537 101.43 44.6504C102.166 44.6607 102.891 44.4659 103.523 44.0877C104.156 43.7095 104.671 43.1628 105.012 42.5085L103.532 41.7034C103.351 42.1109 103.055 42.4568 102.682 42.6991C102.308 42.9413 101.872 43.0696 101.427 43.0681C100.058 43.0681 99.0846 42.0078 99.0814 40.6332C99.0781 39.2587 100.047 38.1902 101.417 38.1788" fill="#485B60"/>
<path d="M109.906 36.5916C107.566 36.5916 105.885 38.349 105.898 40.6203C105.898 42.9618 107.587 44.6325 109.923 44.6276C111.531 44.6276 112.74 43.924 113.427 42.8277L112.14 41.9048C111.742 42.5839 111.015 43.0813 109.942 43.0846C108.665 43.0846 107.646 42.255 107.566 40.9884L113.609 40.9737C113.623 40.7283 113.623 40.5875 113.623 40.4174C113.623 37.9334 111.92 36.5933 109.905 36.5965L109.906 36.5916ZM107.636 39.7497C107.865 38.6043 108.861 38.03 109.849 38.03C110.837 38.03 111.727 38.6272 111.915 39.7383L107.636 39.7497Z" fill="#485B60"/>
<path d="M134.99 36.5309H134.93C134.404 36.5267 133.881 36.6275 133.394 36.8274C132.907 37.0273 132.464 37.3223 132.091 37.6952C131.719 38.0681 131.424 38.5115 131.224 38.9996C131.024 39.4876 130.923 40.0107 130.927 40.5382V40.5595C130.924 41.0883 131.026 41.6125 131.227 42.1014C131.428 42.5903 131.725 43.0341 132.099 43.4069C132.473 43.7797 132.918 44.074 133.407 44.2726C133.896 44.4712 134.42 44.5701 134.948 44.5636H134.977C135.505 44.5709 136.028 44.4725 136.517 44.2741C137.006 44.0757 137.45 43.7813 137.824 43.4084C138.198 43.0358 138.493 42.5924 138.694 42.1042C138.895 41.6159 138.997 41.0925 138.993 40.5644V40.5382C138.997 40.0115 138.895 39.4893 138.695 39.0022C138.495 38.5151 138.2 38.0727 137.827 37.7008C137.455 37.3283 137.013 37.0336 136.526 36.8338C136.04 36.6341 135.518 36.5333 134.992 36.5374L134.99 36.5309ZM134.971 42.9944C133.601 42.9944 132.645 41.934 132.642 40.5611C132.639 39.1883 133.591 38.1165 134.958 38.1067C136.325 38.0968 137.27 39.1686 137.274 40.5431C137.277 41.9177 136.325 42.9845 134.971 42.9878V42.9944Z" fill="#485B60"/>
<path d="M127.995 36.7029V37.413C127.455 36.8583 126.653 36.5523 125.73 36.554C123.499 36.554 121.886 38.2754 121.869 40.4419C121.859 40.9545 121.952 41.4639 122.142 41.9396C122.333 42.4154 122.618 42.8475 122.98 43.2102C123.341 43.5729 123.772 43.8586 124.247 44.0501C124.722 44.2417 125.23 44.3351 125.742 44.3249C126.668 44.3249 127.466 43.9976 128.004 43.4233V44.338C128.004 45.5407 127.35 46.1838 126.465 46.3801C124.26 46.7761 122.89 46.1101 122.89 46.1101L122.35 47.4977C123.137 47.9886 125.578 48.1293 126.712 47.879C128.345 47.591 129.704 46.5208 129.699 44.3527L129.684 36.7012L127.995 36.7029ZM128.007 41.6773C127.788 42.0232 127.483 42.3055 127.121 42.4959C126.759 42.6863 126.354 42.7781 125.946 42.7622C124.608 42.7622 123.635 41.764 123.619 40.437C123.61 40.1284 123.666 39.8214 123.782 39.5354C123.895 39.2487 124.065 38.9882 124.282 38.7696C124.498 38.5509 124.757 38.3787 125.042 38.2634C125.328 38.1481 125.633 38.092 125.941 38.0987C126.347 38.0825 126.75 38.1716 127.112 38.3574C127.474 38.5431 127.781 38.8192 128.005 39.159L128.007 41.6773Z" fill="#485B60"/>
<path d="M116.772 42.9945L119.082 39.8527C119.547 39.2424 120.29 38.2164 120.429 37.9922C121.072 36.927 121.151 35.8077 120.592 34.6901C120.137 33.7803 119.331 33.3369 118.34 33.2174C116.95 33.0407 115.505 33.6854 114.852 35.0043C114.7 35.2914 114.6 35.6034 114.558 35.9255L116.039 36.2528C116.062 36.189 116.083 36.1366 116.098 36.0892C116.168 35.8196 116.298 35.5692 116.478 35.3565C116.657 35.1439 116.883 34.9743 117.136 34.8603C117.677 34.6132 118.453 34.7098 118.871 35.0714C119.571 35.6817 119.562 36.7077 119.054 37.3622C118.969 37.4735 114.585 43.0697 114.585 43.0697C114.544 43.1186 114.522 43.1809 114.523 43.2448V44.4835L121.028 44.4672V42.9945H116.772Z" fill="#485B60"/>
</g>
<defs>
<clipPath id="clip0_1_57">
<rect width="180" height="80" fill="white"/>
</clipPath>
</defs>
</svg>
