<svg width="33" height="32" viewBox="0 0 33 32" fill="none" xmlns="http://www.w3.org/2000/svg">
<path d="M8.6294 21.1034C7.59383 20.0094 7.03784 18.7824 7.03784 16.7934C7.03784 13.2934 9.50812 10.1564 13.1004 8.60547L13.9983 9.98343C10.6452 11.7874 9.98971 14.1284 9.72831 15.6044C10.2682 15.3264 10.975 15.2294 11.6677 15.2934C13.4815 15.4604 14.9112 16.9414 14.9112 18.7824C14.9112 19.7107 14.5404 20.6009 13.8805 21.2573C13.2206 21.9137 12.3255 22.2824 11.3923 22.2824C10.3135 22.2824 9.28191 21.7924 8.6294 21.1034ZM18.6835 21.1034C17.6479 20.0094 17.0919 18.7824 17.0919 16.7934C17.0919 13.2934 19.5622 10.1564 23.1545 8.60547L24.0523 9.98343C20.6993 11.7874 20.0438 14.1284 19.7824 15.6044C20.3223 15.3264 21.0291 15.2294 21.7218 15.2934C23.5355 15.4604 24.9652 16.9414 24.9652 18.7824C24.9652 19.7107 24.5945 20.6009 23.9346 21.2573C23.2746 21.9137 22.3796 22.2824 21.4463 22.2824C20.3675 22.2824 19.336 21.7924 18.6835 21.1034Z" fill="#CBC7B5"/>
</svg>
