<svg width="129" height="150" viewBox="0 0 129 150" fill="none" xmlns="http://www.w3.org/2000/svg">
<path d="M139 -166L143.219 -99.5144L153.529 -165.134L151.612 -98.5118L167.9 -162.547L159.866 -96.5174L181.953 -158.267L167.892 -93.5533L195.536 -152.34L175.601 -89.6519L208.5 -144.832L182.909 -84.8558L220.701 -135.825L189.735 -79.2177L232.01 -125.417L196.007 -72.7993L242.297 -113.723L201.653 -65.671L251.453 -100.87L206.613 -57.9107L259.377 -87L210.832 -49.6037L265.983 -72.2644L214.265 -40.8409L271.197 -56.8247L216.872 -31.7181L274.962 -40.8501L218.627 -22.3357L277.239 -24.5155L219.51 -12.7961L278 -8L219.51 -3.20393L277.239 8.51547L218.627 6.33566L274.962 24.8501L216.872 15.7181L271.197 40.8247L214.265 24.8409L265.983 56.2644L210.832 33.6037L259.377 71L206.613 41.9107L251.453 84.8701L201.653 49.6709L242.297 97.7226L196.007 56.7993L232.01 109.417L189.735 63.2177L220.701 119.825L182.909 68.8558L208.5 128.832L175.601 73.6519L195.536 136.34L167.892 77.5533L181.953 142.267L159.866 80.5174L167.9 146.547L151.612 82.5118L153.529 149.134L143.219 83.5144L139 150L134.781 83.5144L124.471 149.134L126.388 82.5118L110.1 146.547L118.134 80.5174L96.0466 142.267L110.108 77.5533L82.4636 136.34L102.399 73.6519L69.5 128.832L95.0913 68.8558L57.2978 119.825L88.2642 63.2177L45.9909 109.417L81.993 56.7993L35.7028 97.7226L76.3464 49.6709L26.5466 84.8701L71.3863 41.9107L18.6224 71L67.167 33.6037L12.0172 56.2644L63.7347 24.8409L6.80315 40.8247L61.1271 15.7181L3.03747 24.8501L59.3725 6.33566L0.761454 8.51547L58.4905 -3.20393L0 -8L58.4905 -12.7961L0.761454 -24.5155L59.3725 -22.3357L3.03747 -40.8501L61.1271 -31.7181L6.80315 -56.8247L63.7347 -40.8409L12.0172 -72.2644L67.167 -49.6037L18.6224 -87L71.3863 -57.9107L26.5466 -100.87L76.3464 -65.671L35.7028 -113.723L81.993 -72.7993L45.9909 -125.417L88.2642 -79.2177L57.2978 -135.825L95.0913 -84.8558L69.5 -144.832L102.399 -89.6519L82.4636 -152.34L110.108 -93.5533L96.0466 -158.267L118.134 -96.5174L110.1 -162.547L126.388 -98.5118L124.471 -165.134L134.781 -99.5144L139 -166Z" fill="#ECE8D9"/>
</svg>
