<svg width="32" height="32" viewBox="0 0 32 32" fill="none" xmlns="http://www.w3.org/2000/svg">
<g clip-path="url(#clip0_1_172)">
<path d="M27.9243 15.3002V29.329C27.9243 30.7989 26.7284 31.9948 25.2585 31.9948H12.7292C11.2593 31.9948 10.0634 30.7989 10.0634 29.329V2.67093C10.0634 1.20101 11.2593 0.00512695 12.7292 0.00512695H25.2585C26.7284 0.00512695 27.9243 1.20101 27.9243 2.67093V3.80389C27.9243 4.09833 27.6855 4.33705 27.3911 4.33705C27.0967 4.33705 26.8579 4.09833 26.8579 3.80389V2.67093C26.8579 1.78902 26.1404 1.07145 25.2585 1.07145H15.1015L15.6135 1.99302C15.7544 2.24673 16.0223 2.40435 16.3126 2.40435H21.675C21.9695 2.40435 22.2082 2.64307 22.2082 2.93751C22.2082 3.23195 21.9695 3.47067 21.675 3.47067H16.3126C15.6353 3.47067 15.0103 3.10286 14.6813 2.51085L13.8816 1.07145H12.7292C11.8473 1.07145 11.1297 1.78902 11.1297 2.67093V29.329C11.1297 30.2109 11.8473 30.9284 12.7292 30.9284H25.2585C26.1404 30.9284 26.8579 30.2109 26.8579 29.329V15.3002C26.8579 15.0057 27.0967 14.767 27.3911 14.767C27.6855 14.767 27.9243 15.0057 27.9243 15.3002ZM8.53056 0.538287C8.53056 0.243849 8.29184 0.00512695 7.9974 0.00512695H2.6658C1.19588 0.00512695 0 1.20101 0 2.67093V29.329C0 30.7989 1.19588 31.9948 2.6658 31.9948H7.9974C8.29184 31.9948 8.53056 31.756 8.53056 31.4616C8.53056 31.1672 8.29184 30.9284 7.9974 30.9284H2.6658C1.78389 30.9284 1.06632 30.2109 1.06632 29.329V2.67093C1.06632 1.78902 1.78389 1.07145 2.6658 1.07145H7.9974C8.29184 1.07145 8.53056 0.832725 8.53056 0.538287ZM4.86509 8.13582C4.86509 8.61353 4.47641 9.0022 3.9987 9.0022C3.52099 9.0022 3.13232 8.61353 3.13232 8.13582C3.13232 7.65811 3.52099 7.26943 3.9987 7.26943C4.47641 7.26943 4.86509 7.65804 4.86509 8.13582ZM4.86509 4.13712C4.86509 4.61483 4.47641 5.0035 3.9987 5.0035C3.52099 5.0035 3.13232 4.61483 3.13232 4.13712C3.13232 3.65941 3.52099 3.27073 3.9987 3.27073C4.47641 3.27073 4.86509 3.65934 4.86509 4.13712ZM6.6645 5.27008C7.14221 5.27008 7.53089 5.65876 7.53089 6.13647C7.53089 6.61418 7.14221 7.00285 6.6645 7.00285C6.18679 7.00285 5.79812 6.61418 5.79812 6.13647C5.79812 5.65876 6.18679 5.27008 6.6645 5.27008ZM28.1209 11.5807C28.7506 12.2104 28.2985 13.2872 27.414 13.2872C26.5302 13.2872 26.0769 12.2109 26.7072 11.5807C27.0978 11.1899 27.7302 11.1898 28.1209 11.5807C28.1209 11.5806 28.1209 11.5806 28.1209 11.5807ZM24.9635 9.837C24.7553 10.0452 24.7553 10.3828 24.9635 10.591C25.1718 10.7992 25.5093 10.7992 25.7175 10.591C26.6551 9.65333 28.1729 9.65326 29.1105 10.591C29.2147 10.6951 29.351 10.7471 29.4875 10.7471C29.9582 10.7471 30.2014 10.1738 29.8645 9.83693C28.5103 8.48264 26.3181 8.48244 24.9635 9.837ZM31.8439 7.85771C29.3955 5.40937 25.4329 5.40917 22.9843 7.85771C22.7761 8.06591 22.7761 8.40347 22.9843 8.61166C23.1925 8.81986 23.53 8.81986 23.7383 8.61166C25.7651 6.58479 29.063 6.58492 31.0898 8.61166C31.2981 8.81993 31.6355 8.81986 31.8438 8.61166C32.0521 8.40347 32.0521 8.06591 31.8439 7.85771Z" fill="#9F9B8D"/>
</g>
<defs>
<clipPath id="clip0_1_172">
<rect width="32" height="32" fill="white"/>
</clipPath>
</defs>
</svg>
