<svg width="180" height="80" viewBox="0 0 180 80" fill="none" xmlns="http://www.w3.org/2000/svg">
<g clip-path="url(#clip0_1_88)">
<path d="M180 0H0V80H180V0Z" fill="white"/>
<path d="M42.7617 45.8147L38 34.1851H40.4392L43.9247 42.861L47.4308 34.1851H49.87L45.0843 45.8147H42.7617Z" fill="#485B60"/>
<path d="M51.9696 38.9777H59.1225C58.9153 38.1922 58.4543 37.4938 57.8086 36.9873C57.1782 36.4776 56.385 36.2021 55.5684 36.2093C54.7304 36.1886 53.9122 36.4607 53.2596 36.9772C52.6202 37.4892 52.1675 38.1913 51.9696 38.9777ZM51.2526 44.2587C50.6808 43.7077 50.2292 43.0483 49.9255 42.3204C49.6217 41.5926 49.4721 40.8116 49.4858 40.0252C49.4727 39.2374 49.62 38.4549 49.9193 37.7238C50.2186 36.9928 50.6638 36.3278 51.2286 35.7681C51.776 35.196 52.4396 34.743 53.1765 34.4385C53.9134 34.1339 54.7072 33.9845 55.5066 33.9999C57.0678 33.9823 58.5766 34.5523 59.7229 35.5929C60.3178 36.1241 60.793 36.7715 61.1179 37.4936C61.4429 38.2158 61.6104 38.9966 61.6097 39.786C61.6117 40.1352 61.5888 40.4841 61.5411 40.8301H51.9696C52.0052 41.2402 52.1229 41.6393 52.316 42.0045C52.5091 42.3698 52.7738 42.6941 53.0949 42.9587C53.7644 43.5149 54.6196 43.8088 55.4963 43.7838C56.0271 43.8026 56.5558 43.7085 57.0461 43.5079C57.5364 43.3073 57.9767 43.0051 58.3369 42.6219L61.1089 42.6454C60.5935 43.6463 59.8064 44.4879 58.8344 45.0771C57.8571 45.6855 56.7221 46.0047 55.565 45.9965C54.7633 46.0117 53.967 45.8654 53.2253 45.5664C52.4836 45.2675 51.8122 44.8224 51.2526 44.2587Z" fill="#485B60"/>
<path d="M63.1843 45.8146V39.7522C63.1843 37.8909 63.6417 36.491 64.5566 35.5524C65.024 35.0816 65.5874 34.7128 66.2099 34.4702C66.8323 34.2276 67.4999 34.1167 68.1691 34.1446H68.4058V36.3574H68.1691C66.3988 36.3574 65.5149 37.489 65.5172 39.7522V45.8146H63.1843Z" fill="#485B60"/>
<path d="M75.3426 36.2093C74.8327 36.1935 74.325 36.2827 73.8523 36.4712C73.3796 36.6598 72.9524 36.9434 72.5981 37.3039C71.8934 38.0303 71.5003 38.995 71.5003 39.9982C71.5003 41.0014 71.8934 41.9661 72.5981 42.6926C72.9474 43.0517 73.3691 43.3354 73.8364 43.5256C74.3036 43.7158 74.8061 43.8083 75.3118 43.7973C75.8123 43.8096 76.3099 43.7189 76.7726 43.5309C77.2352 43.343 77.6526 43.062 77.9979 42.7061C78.6905 41.9735 79.0753 41.0111 79.0753 40.0117C79.0753 39.0123 78.6905 38.0498 77.9979 37.3173C77.6533 36.9603 77.2361 36.6783 76.7734 36.4897C76.3106 36.3012 75.8126 36.2102 75.3118 36.2228L75.3426 36.2093ZM70.9926 35.7445C71.9931 34.7594 73.3107 34.1455 74.7207 34.0073C76.1308 33.8691 77.546 34.2153 78.7251 34.9868C79.9042 35.7584 80.7744 36.9075 81.1871 38.2383C81.5998 39.5691 81.5297 40.9993 80.9886 42.285C80.4475 43.5707 79.4689 44.6324 78.2197 45.2891C76.9705 45.9458 75.528 46.1569 74.138 45.8864C72.748 45.6158 71.4966 44.8804 70.5971 43.8055C69.6976 42.7305 69.2057 41.3826 69.2052 39.9915C69.1925 39.2013 69.3445 38.417 69.6519 37.6867C69.9592 36.9563 70.4155 36.2954 70.9926 35.7445Z" fill="#485B60"/>
<path d="M93.4529 45.8147H90.801L87.7443 41.6519L84.6876 45.8147H82.0117L86.4167 39.7692L82.3651 34.1851H84.9964L87.7203 37.9067L90.4923 34.1851H93.1236L89.072 39.7692L93.4529 45.8147Z" fill="#485B60"/>
<path d="M96.146 45.7775V41.8875H94.0225V40.5404H96.146V40.1261L96.1941 38.7082C96.3221 37.2959 96.7727 36.1867 97.5457 35.3807C98.3635 34.5565 99.4637 34.0596 100.633 33.9863V35.4076C99.8582 35.5245 99.1455 35.8933 98.6092 36.455C98.0513 37.0827 97.7292 37.8791 97.6967 38.7116L97.6487 40.1295V40.5437H101.385V41.8909H97.6624V45.7809L96.146 45.7775Z" fill="#485B60"/>
<path d="M105.306 34.1885H103.79V45.818H105.306V34.1885Z" fill="#485B60"/>
<path d="M117.22 36.7549C116.801 36.3236 116.294 35.9829 115.733 35.7545C115.172 35.526 114.569 35.4148 113.961 35.4279C113.351 35.4171 112.745 35.5293 112.181 35.7575C111.617 35.9858 111.107 36.3252 110.682 36.7549C109.82 37.6254 109.339 38.7913 109.339 40.0049C109.339 41.2186 109.82 42.3845 110.682 43.255C111.103 43.6881 111.611 44.0312 112.173 44.263C112.736 44.4948 113.341 44.6102 113.951 44.6022C114.556 44.6135 115.157 44.5018 115.717 44.274C116.276 44.0462 116.781 43.7073 117.2 43.2786C118.047 42.3982 118.519 41.233 118.519 40.0218C118.519 38.8106 118.047 37.6453 117.2 36.765L117.22 36.7549ZM109.615 35.7445C110.615 34.7594 111.933 34.1455 113.343 34.0073C114.753 33.8691 116.168 34.2153 117.347 34.9868C118.526 35.7584 119.397 36.9075 119.809 38.2383C120.222 39.5691 120.152 40.9993 119.611 42.285C119.07 43.5707 118.091 44.6324 116.842 45.2891C115.593 45.9458 114.15 46.1569 112.76 45.8864C111.37 45.6158 110.119 44.8804 109.219 43.8055C108.32 42.7305 107.828 41.3826 107.827 39.9915C107.815 39.2013 107.967 38.417 108.274 37.6867C108.581 36.9563 109.038 36.2954 109.615 35.7445Z" fill="#485B60"/>
<path d="M131.928 36.7549C131.508 36.3236 131.001 35.9829 130.44 35.7545C129.879 35.526 129.276 35.4148 128.668 35.4279C128.058 35.4171 127.453 35.5293 126.888 35.7575C126.324 35.9858 125.814 36.3252 125.389 36.7549C124.527 37.6254 124.046 38.7913 124.046 40.0049C124.046 41.2186 124.527 42.3845 125.389 43.255C125.81 43.6884 126.318 44.0317 126.88 44.2635C127.443 44.4954 128.048 44.6106 128.658 44.6022C129.263 44.6139 129.864 44.5023 130.422 44.2744C130.981 44.0466 131.485 43.7075 131.904 43.2786C132.752 42.3986 133.224 41.2332 133.224 40.0218C133.224 38.8104 132.752 37.645 131.904 36.765L131.928 36.7549ZM124.325 35.7445C125.326 34.7594 126.643 34.1455 128.053 34.0073C129.463 33.8691 130.879 34.2153 132.058 34.9868C133.237 35.7584 134.107 36.9075 134.52 38.2383C134.932 39.5691 134.862 40.9993 134.321 42.285C133.78 43.5707 132.802 44.6324 131.552 45.2891C130.303 45.9458 128.861 46.1569 127.471 45.8864C126.081 45.6158 124.829 44.8804 123.93 43.8055C123.03 42.7305 122.538 41.3826 122.538 39.9915C122.525 39.2013 122.677 38.4169 122.984 37.6866C123.292 36.9562 123.748 36.2953 124.325 35.7445Z" fill="#485B60"/>
<path d="M136.549 45.8148V39.7861C136.549 37.9113 136.987 36.5001 137.863 35.5526C138.313 35.0782 138.862 34.7056 139.474 34.4608C140.085 34.2159 140.744 34.1046 141.403 34.1347C141.518 34.133 141.633 34.1397 141.746 34.1549V35.5762C141.633 35.5579 141.518 35.55 141.403 35.5526C140.94 35.5339 140.479 35.6208 140.055 35.8066C139.632 35.9925 139.259 36.2721 138.964 36.6236C138.365 37.3354 138.065 38.3896 138.065 39.7861V45.8148H136.549Z" fill="#485B60"/>
<path d="M140.449 44.5214H140.707C140.794 44.5303 140.882 44.5114 140.957 44.4675C140.979 44.4508 140.996 44.4292 141.007 44.4046C141.019 44.38 141.024 44.353 141.022 44.326C141.023 44.2901 141.012 44.2549 140.991 44.225C140.969 44.1947 140.938 44.1714 140.902 44.1576C140.833 44.1407 140.761 44.1339 140.689 44.1374H140.449V44.5214ZM140.237 45.2455V43.9623H140.689C140.805 43.9562 140.921 43.9675 141.033 43.996C141.099 44.0198 141.157 44.0633 141.197 44.1206C141.237 44.176 141.258 44.2417 141.259 44.3092C141.26 44.3549 141.251 44.4002 141.233 44.4425C141.216 44.4848 141.189 44.5231 141.156 44.5551C141.082 44.6256 140.984 44.6664 140.882 44.6696C140.924 44.6856 140.962 44.7096 140.995 44.7403C141.068 44.8177 141.132 44.9023 141.187 44.9929L141.348 45.2455H141.091L140.974 45.0434C140.92 44.9305 140.844 44.8288 140.751 44.7437C140.702 44.7104 140.643 44.6949 140.583 44.6999H140.449V45.2455H140.237ZM140.772 43.5885C140.597 43.5901 140.426 43.6353 140.274 43.7198C140.114 43.803 139.981 43.9306 139.894 44.0869C139.804 44.2382 139.756 44.4102 139.756 44.5854C139.757 44.7589 139.803 44.9295 139.89 45.0805C139.977 45.2358 140.108 45.3632 140.267 45.4476C140.42 45.5358 140.594 45.5823 140.772 45.5823C140.949 45.5823 141.123 45.5358 141.276 45.4476C141.435 45.3632 141.566 45.2358 141.653 45.0805C141.738 44.9286 141.783 44.7585 141.784 44.5854C141.784 44.4107 141.738 44.2389 141.65 44.0869C141.561 43.9313 141.429 43.804 141.269 43.7198C141.124 43.6386 140.96 43.5935 140.792 43.5885H140.772ZM140.772 43.3931C140.981 43.3939 141.186 43.446 141.369 43.5447C141.56 43.6463 141.719 43.7993 141.825 43.9859C141.929 44.1692 141.985 44.3754 141.986 44.5854C141.987 44.7935 141.931 44.998 141.825 45.1781C141.722 45.366 141.566 45.5205 141.376 45.6227C141.191 45.7242 140.983 45.7775 140.772 45.7775C140.56 45.7775 140.352 45.7242 140.168 45.6227C139.982 45.5167 139.83 45.3615 139.729 45.1748C139.622 44.9935 139.566 44.7879 139.566 44.5786C139.566 44.3694 139.622 44.1638 139.729 43.9825C139.835 43.796 139.994 43.643 140.185 43.5413C140.371 43.4421 140.58 43.3911 140.792 43.3931H140.772Z" fill="#485B60"/>
</g>
<defs>
<clipPath id="clip0_1_88">
<rect width="180" height="80" fill="white"/>
</clipPath>
</defs>
</svg>
